<svg xmlns="http://www.w3.org/2000/svg" viewBox="0 0 100 100">
  <defs>
    <radialGradient id="bg6" cx="50%" cy="50%" r="50%">
      <stop offset="0%" stop-color="#0c4a6e"/>
      <stop offset="100%" stop-color="#082f49"/>
    </radialGradient>
  </defs>
  <rect width="100" height="100" rx="22" fill="url(#bg6)"/>
  <!-- Cabeza robot cuadrada -->
  <rect x="30" y="18" width="40" height="38" rx="6" fill="#164e63"/>
  <rect x="32" y="20" width="36" height="34" rx="4" fill="#0e7490"/>
  <!-- Antena -->
  <rect x="48" y="12" width="4" height="8" rx="2" fill="#22d3ee"/>
  <circle cx="50" cy="11" r="4" fill="#06b6d4"/>
  <!-- Ojos LED -->
  <rect x="36" y="28" width="10" height="8" rx="2" fill="#0f172a"/>
  <rect x="54" y="28" width="10" height="8" rx="2" fill="#0f172a"/>
  <rect x="37" y="29" width="8" height="6" rx="1" fill="#22d3ee"/>
  <rect x="55" y="29" width="8" height="6" rx="1" fill="#22d3ee"/>
  <!-- Boca display -->
  <rect x="36" y="42" width="28" height="8" rx="3" fill="#0f172a"/>
  <rect x="38" y="44" width="5" height="4" rx="1" fill="#22d3ee"/>
  <rect x="45" y="44" width="5" height="4" rx="1" fill="#06b6d4"/>
  <rect x="52" y="44" width="5" height="4" rx="1" fill="#22d3ee"/>
  <rect x="59" y="44" width="3" height="4" rx="1" fill="#06b6d4"/>
  <!-- Cuerpo -->
  <rect x="26" y="58" width="48" height="26" rx="8" fill="#155e75"/>
  <!-- Panel pecho -->
  <rect x="34" y="63" width="32" height="14" rx="4" fill="#0e7490"/>
  <circle cx="42" cy="70" r="4" fill="#22d3ee"/>
  <circle cx="50" cy="70" r="4" fill="#06b6d4"/>
  <circle cx="58" cy="70" r="4" fill="#22d3ee"/>
</svg>
