<svg xmlns="http://www.w3.org/2000/svg" viewBox="0 0 100 100">
  <defs>
    <radialGradient id="bg5" cx="50%" cy="50%" r="50%">
      <stop offset="0%" stop-color="#831843"/>
      <stop offset="100%" stop-color="#500724"/>
    </radialGradient>
  </defs>
  <rect width="100" height="100" rx="22" fill="url(#bg5)"/>
  <!-- Pelo largo -->
  <ellipse cx="50" cy="30" rx="24" ry="18" fill="#be185d"/>
  <rect x="26" y="35" width="8" height="28" rx="4" fill="#be185d"/>
  <rect x="66" y="35" width="8" height="28" rx="4" fill="#be185d"/>
  <!-- Cara -->
  <ellipse cx="50" cy="42" rx="18" ry="19" fill="#fde8d8"/>
  <!-- Parche pirata -->
  <circle cx="43" cy="38" r="7" fill="#1a1a1a"/>
  <line x1="36" y1="32" x2="50" y2="44" stroke="#4b5563" stroke-width="2"/>
  <!-- Ojo bueno -->
  <ellipse cx="58" cy="38" rx="4" ry="4" fill="#fff"/>
  <ellipse cx="58" cy="38" rx="2.5" ry="2.5" fill="#be185d"/>
  <!-- Boca -->
  <path d="M42 51 Q50 57 58 51" stroke="#9d174d" stroke-width="2" fill="none" stroke-linecap="round"/>
  <!-- Sombrero -->
  <rect x="30" y="14" width="40" height="16" rx="4" fill="#1f2937"/>
  <rect x="24" y="26" width="52" height="6" rx="3" fill="#374151"/>
  <!-- Calavera sombrero -->
  <circle cx="50" cy="20" r="5" fill="#f9fafb"/>
  <rect x="46" y="22" width="8" height="4" rx="1" fill="#f9fafb"/>
  <!-- Cuerpo -->
  <rect x="28" y="62" width="44" height="24" rx="10" fill="#9d174d"/>
</svg>
