<svg xmlns="http://www.w3.org/2000/svg" viewBox="0 0 100 100">
  <defs>
    <radialGradient id="bg8" cx="50%" cy="50%" r="50%">
      <stop offset="0%" stop-color="#14532d"/>
      <stop offset="100%" stop-color="#052e16"/>
    </radialGradient>
    <radialGradient id="glow8" cx="50%" cy="50%" r="50%">
      <stop offset="0%" stop-color="#4ade80" stop-opacity="0.3"/>
      <stop offset="100%" stop-color="#4ade80" stop-opacity="0"/>
    </radialGradient>
  </defs>
  <rect width="100" height="100" rx="22" fill="url(#bg8)"/>
  <circle cx="50" cy="50" r="42" fill="url(#glow8)"/>
  <!-- Cuerpo fantasma -->
  <path d="M26,45 Q26,20 50,20 Q74,20 74,45 L74,75 Q70,70 65,75 Q60,80 55,75 Q50,70 45,75 Q40,80 35,75 Q30,70 26,75 Z" fill="#4ade80" opacity="0.9"/>
  <!-- Ojos huecos -->
  <ellipse cx="40" cy="48" rx="8" ry="9" fill="#052e16"/>
  <ellipse cx="60" cy="48" rx="8" ry="9" fill="#052e16"/>
  <!-- Brillo ojos -->
  <ellipse cx="40" cy="46" rx="3" ry="3" fill="#86efac" opacity="0.6"/>
  <ellipse cx="60" cy="46" rx="3" ry="3" fill="#86efac" opacity="0.6"/>
  <!-- Líneas espectrales -->
  <line x1="30" y1="63" x2="70" y2="63" stroke="#86efac" stroke-width="1" opacity="0.3"/>
  <line x1="32" y1="69" x2="68" y2="69" stroke="#86efac" stroke-width="1" opacity="0.2"/>
</svg>
